<svg width="97" height="99" viewBox="0 0 97 99" fill="none" xmlns="http://www.w3.org/2000/svg">
<path d="M13.4209 80.8086L18.2354 58.8281H21.1074L22.668 60.7041L17.5381 83H14.3672L13.4209 80.8086ZM12.1426 58.8281L16.21 80.9746L15.1641 83H11.4951L6.36523 58.8281H12.1426ZM25.3076 80.8584L29.3418 58.8281H35.1025L29.9727 83H26.3203L25.3076 80.8584ZM23.1826 58.8281L28.1133 80.9414L27.1172 83H23.9463L18.7002 60.6709L20.3271 58.8281H23.1826Z" />
<path fill-rule="evenodd" clip-rule="evenodd" d="M40.7072 15.9294L48.5 0L56.2927 15.9294L89.7155 84.25L96.5644 98.25H80.9789H16.021H0.435547L7.28442 84.25L7.40672 84H22.9922L22.8699 84.25H74.13L48.5 31.8588L35.7115 58H20.1261L40.7072 15.9294Z" fill="#00875F"/>
</svg>
